<?xml version="1.0" encoding="utf-8"?>
<!-- Generator: Adobe Illustrator 16.0.0, SVG Export Plug-In . SVG Version: 6.00 Build 0)  -->
<!DOCTYPE svg PUBLIC "-//W3C//DTD SVG 1.1//EN" "http://www.w3.org/Graphics/SVG/1.1/DTD/svg11.dtd">
<svg version="1.1" id="Layer_1" xmlns="http://www.w3.org/2000/svg" xmlns:xlink="http://www.w3.org/1999/xlink" x="0px" y="0px"
	 width="169.75px" height="65.25px" viewBox="0 0 169.75 65.25" enable-background="new 0 0 169.75 65.25" xml:space="preserve">
<g>
	<path fill="#888888" d="M132.46,21.75c0-9.67-19.79-17.54-44.76-18.05l-0.25-1.16c-0.19-0.51-0.77-0.96-1.28-0.96h-2.05
		c-0.58,0-1.149,0.44-1.28,0.96L82.521,3.7C57.55,4.21,37.7,12.08,37.7,21.75c0,8.391,14.98,15.431,35.28,17.48l-0.96,3.72
		c-0.13,0.51,0.189,0.96,0.77,0.96h24.65c0.58,0,0.899-0.45,0.77-0.96l-0.96-3.72C117.48,37.19,132.46,30.141,132.46,21.75
		 M94.49,28.92L88.73,7.54c18.83,0.58,33.489,5.19,33.489,10.88C122.21,23.48,110.431,27.71,94.49,28.92 M48,18.42
		c0-5.7,14.67-10.37,33.49-10.88l-5.76,21.38C59.78,27.71,48,23.48,48,18.42"/>
	<path fill="#888888" d="M8.17,57.61H4.01l2.11-5.25L8.17,57.61z M1.771,61.01H2.67l1.021-2.56h4.74l1.02,2.56h1.021l-3.78-9.54
		h-1.09L1.771,61.01z"/>
	<path fill="#888888" d="M11.63,57.04c0-1.16,0.771-2.439,2.051-2.439c1.279,0,1.79,1.22,1.79,2.439H11.63z M15.851,59.92
		c-0.38,0.25-1.28,0.511-1.92,0.511c-1.471,0-2.301-1.221-2.301-2.69h4.74v-0.45c0-1.859-0.77-3.39-2.76-3.39
		c-1.73,0-2.88,1.47-2.88,3.59c0,2.11,0.83,3.64,3.14,3.64c0.64,0,1.41-0.12,1.98-0.38V59.92z"/>
	<path fill="#888888" d="M17.271,55.62c0-0.76,0-1.08-0.061-1.59h0.9v1.34c0.32-0.77,0.89-1.47,1.79-1.47c0.189,0,0.45,0,0.58,0.06
		v0.9c-0.19-0.07-0.391-0.07-0.641-0.07c-1.34,0-1.659,1.54-1.659,2.76v3.46h-0.9v-5.39H17.271z"/>
	<path fill="#888888" d="M21.49,57.49c0-1.61,0.77-2.89,2.31-2.89c1.471,0,2.301,1.279,2.301,2.89c0,1.59-0.83,2.94-2.301,2.94
		C22.26,60.431,21.49,59.09,21.49,57.49 M20.53,57.49c0,1.91,1.02,3.64,3.27,3.64c2.24,0,3.2-1.729,3.2-3.64
		c0-1.87-0.96-3.59-3.2-3.59C21.561,53.9,20.53,55.62,20.53,57.49"/>
	<path fill="#888888" d="M33.021,57.49c0,1.34-0.38,2.94-2.05,2.94c-1.54,0-2.051-1.671-2.051-2.94c0-1.22,0.511-2.89,2.051-2.89
		C32.63,54.601,33.021,56.141,33.021,57.49 M28.09,63.83h0.83V59.8h0.061c0.39,0.891,1.029,1.341,2.109,1.341
		c1.92,0,2.881-1.601,2.881-3.641c0-2.06-0.83-3.59-2.881-3.59c-1.47,0-1.979,1.03-2.17,1.41h-0.06l0.06-1.28h-0.83V63.83z"/>
	<path fill="#888888" d="M40.38,59.34c0,0.511,0,1.091,0.061,1.67h-0.83v-1.29h-0.07c-0.25,0.641-0.77,1.41-2.24,1.41
		c-1.67,0-2.369-1.149-2.369-2.62V54.03h0.899v4.229c0,1.28,0.45,2.171,1.601,2.171c1.6,0,2.05-1.41,2.05-2.561v-3.84h0.899V59.34
		L40.38,59.34z"/>
	<path fill="#888888" d="M42.75,57.04c0-1.16,0.771-2.439,2.05-2.439c1.221,0,1.73,1.22,1.73,2.439H42.75z M46.98,59.92
		c-0.45,0.25-1.34,0.511-1.98,0.511c-1.47,0-2.24-1.221-2.24-2.69h4.74v-0.45c0-1.859-0.83-3.39-2.76-3.39
		c-1.79,0-2.94,1.47-2.94,3.59c0,2.11,0.83,3.64,3.141,3.64c0.64,0,1.41-0.12,2.05-0.38v-0.83H46.98z"/>
	<path fill="#888888" d="M48.641,55.62c0-0.76,0-1.08-0.061-1.59h0.83v1.34h0.061c0.319-0.77,0.899-1.47,1.789-1.47
		c0.2,0,0.45,0,0.58,0.06v0.9c-0.189-0.07-0.38-0.07-0.64-0.07c-1.34,0-1.729,1.54-1.729,2.76v3.46h-0.83V55.62z"/>
	<path fill="#888888" d="M55.94,54.79H54.34v4.48c0,0.64,0.261,1.16,0.96,1.16c0.32,0,0.511-0.07,0.771-0.19l0.06,0.7
		C55.94,61,55.49,61.13,55.11,61.13c-1.54,0-1.601-1.02-1.601-2.3v-4.04h-1.35v-0.76h1.35v-1.67l0.83-0.26v1.93h1.601V54.79z"/>
	<path fill="#888888" d="M57.41,57.49c0-1.61,0.771-2.89,2.311-2.89c1.47,0,2.239,1.279,2.239,2.89c0,1.59-0.77,2.94-2.239,2.94
		C58.181,60.431,57.41,59.09,57.41,57.49 M56.45,57.49c0,1.91,1.021,3.64,3.271,3.64c2.239,0,3.199-1.729,3.199-3.64
		c0-1.87-0.96-3.59-3.199-3.59C57.48,53.9,56.45,55.62,56.45,57.49"/>
	<path fill="#888888" d="M63.82,59.98c0.51,0.26,1.15,0.45,1.79,0.45c0.83,0,1.54-0.45,1.54-1.28c0-1.601-3.33-1.34-3.33-3.391
		c0-1.35,1.15-1.859,2.24-1.859c0.39,0,1.149,0.06,1.729,0.32l-0.06,0.699c-0.45-0.199-1.09-0.33-1.54-0.33
		c-0.891,0-1.54,0.33-1.54,1.16c0,1.28,3.46,1.15,3.46,3.391c0,1.47-1.41,1.979-2.43,1.979c-0.641,0-1.341-0.06-1.92-0.32
		L63.82,59.98z"/>
	<path fill="#888888" d="M76.11,57.17h-2.37l1.21-3.71h0.06L76.11,57.17z M69.84,61.01H72.4l0.77-2.05h3.59l0.7,2.05h2.75
		l-3.649-9.54H73.42L69.84,61.01z"/>
	<path fill="#888888" d="M85.4,55.88c-0.26-0.12-0.58-0.12-0.83-0.12c-1.15,0-1.79,0.83-1.79,2.24v3.01h-2.44V53.9h2.24v1.28
		c0.45-0.9,1.03-1.471,2.12-1.471c0.26,0,0.57,0.061,0.83,0.13L85.4,55.88z"/>
	<path fill="#888888" d="M88.09,57.351c0-0.96,0.45-1.73,1.351-1.73c1.149,0,1.6,0.9,1.6,1.67c0,1.08-0.7,1.79-1.6,1.79
		C88.73,59.09,88.09,58.51,88.09,57.351 M93.4,53.9h-2.24v1.28c-0.52-0.9-1.41-1.471-2.43-1.471c-2.181,0-3.2,1.601-3.2,3.71
		c0,2.12,1.21,3.59,3.14,3.59c1.021,0,1.86-0.39,2.431-1.21v0.381c0,1.35-0.771,2.05-2.181,2.05c-1.029,0-1.67-0.261-2.37-0.58
		l-0.13,1.92c0.58,0.2,1.54,0.45,2.69,0.45c2.88,0,4.29-0.96,4.29-3.84V53.9L93.4,53.9z"/>
	<path fill="#888888" d="M96.34,56.78c0-0.83,0.45-1.47,1.351-1.47c0.96,0,1.35,0.64,1.35,1.47H96.34z M101.21,58.12v-0.439
		c0-2.061-0.96-3.98-3.52-3.98c-2.24,0-3.84,1.41-3.84,3.71c0,2.38,1.8,3.71,4.159,3.71c0.9,0,1.801-0.12,2.561-0.45v-1.72
		c-0.71,0.38-1.48,0.57-2.18,0.57c-1.15,0-1.92-0.38-2.051-1.41h4.87V58.12z"/>
	<path fill="#888888" d="M102.04,53.9h2.24v1.28c0.51-1.03,1.47-1.471,2.56-1.471c1.92,0,2.75,1.41,2.75,2.88v4.42h-2.5v-3.46
		c0-1.35-0.449-1.79-1.09-1.79c-1.02,0-1.54,0.7-1.54,2.24v3.01h-2.43V53.9H102.04z"/>
	<path fill="#888888" d="M109.98,53.9h1.47V52.3l2.37-0.699v2.3h1.729v1.72h-1.729v2.56c0,0.9,0.189,1.351,0.96,1.351
		c0.26,0,0.51-0.061,0.77-0.13l0.061,1.609c-0.45,0.061-0.891,0.12-1.53,0.12c-2.18,0-2.689-0.96-2.689-2.62v-2.89h-1.41V53.9
		L109.98,53.9z"/>
	<path fill="#888888" d="M116.45,53.9h2.439v7.109h-2.439V53.9z M118.88,52.75h-2.43v-1.79h2.43V52.75z"/>
	<path fill="#888888" d="M120.23,53.9h2.239v1.28c0.511-1.03,1.471-1.471,2.62-1.471c1.92,0,2.69,1.41,2.69,2.88v4.42h-2.431v-3.46
		c0-1.35-0.51-1.79-1.149-1.79c-1.03,0-1.54,0.7-1.54,2.24v3.01h-2.43V53.9z"/>
	<path fill="#888888" d="M130.47,58.771c0-0.7,0.641-0.96,1.471-0.96c0.39,0,0.77,0,1.09,0.06c0,0.771-0.641,1.67-1.54,1.67
		C130.92,59.53,130.47,59.21,130.47,58.771 M135.4,61.01c-0.061-0.579-0.12-1.159-0.12-1.729v-2.63c0-2.11-1.54-2.94-3.33-2.94
		c-1.08,0-1.98,0.19-2.88,0.521l0.06,1.66c0.71-0.381,1.47-0.511,2.24-0.511c0.89,0,1.6,0.25,1.66,1.221
		c-0.32-0.061-0.771-0.061-1.16-0.061c-1.34,0-3.65,0.25-3.65,2.36c0,1.54,1.221,2.24,2.63,2.24c1.021,0,1.66-0.381,2.24-1.28
		c0,0.39,0.061,0.77,0.061,1.16h2.25V61.01z"/>
	<path fill="#888888" d="M137.97,59.15c1.92-1.66,4.16-3.46,4.16-4.74c0-0.83-0.58-1.21-1.34-1.21c-0.84,0-1.92,0.32-2.5,0.64
		l-0.06-1.92c1.35-0.52,2.239-0.58,2.76-0.58c2.18,0,3.649,0.9,3.649,2.75c0,1.86-1.989,3.721-2.89,4.48l-0.64,0.64h3.71v1.8h-6.851
		V59.15L137.97,59.15z"/>
	<path fill="#888888" d="M148.85,59.4c-1.149,0-1.21-1.66-1.21-3.13c0-1.54,0.061-3.2,1.21-3.2c1.15,0,1.21,1.66,1.21,3.2
		C150.06,57.74,150,59.4,148.85,59.4 M148.85,61.13c3.141,0,3.65-2.43,3.65-4.859c0-2.5-0.51-4.94-3.65-4.94
		c-3.14,0-3.71,2.43-3.71,4.94C145.14,58.7,145.71,61.13,148.85,61.13"/>
	<path fill="#888888" d="M156.66,59.4c-1.15,0-1.22-1.66-1.22-3.13c0-1.54,0.06-3.2,1.22-3.2c1.149,0,1.28,1.66,1.28,3.2
		C157.94,57.74,157.82,59.4,156.66,59.4 M156.66,61.13c3.14,0,3.71-2.43,3.71-4.859c0-2.5-0.58-4.94-3.71-4.94
		c-3.141,0-3.65,2.43-3.65,4.94C153.01,58.7,153.53,61.13,156.66,61.13"/>
	<path fill="#888888" d="M164.47,59.4c-1.149,0-1.279-1.66-1.279-3.13c0-1.54,0.13-3.2,1.279-3.2c1.09,0,1.21,1.66,1.21,3.2
		C165.69,57.74,165.56,59.4,164.47,59.4 M164.47,61.13c3.141,0,3.65-2.43,3.65-4.859c0-2.5-0.51-4.94-3.65-4.94
		c-3.14,0-3.71,2.43-3.71,4.94C160.76,58.7,161.33,61.13,164.47,61.13"/>
</g>
</svg>
